<svg width="155" height="68" viewBox="0 0 155 68" fill="none" xmlns="http://www.w3.org/2000/svg">
<path d="M54.873 38.3809C53.5352 38.3809 52.1191 38.2051 50.625 37.8535C49.1309 37.502 47.8418 37.0234 46.7578 36.418L48.252 33.2393C50.4199 34.3916 52.6611 34.9678 54.9756 34.9678C56.1377 34.9678 56.958 34.7285 57.4365 34.25C57.915 33.7715 58.1543 33.0537 58.1543 32.0967C58.1543 31.9111 58.1348 31.6328 58.0957 31.2617C58.0078 30.3828 57.0312 29.665 55.166 29.1084L51.4746 28.0244C50.3418 27.6924 49.4336 27.2188 48.75 26.6035C48.0664 25.9785 47.6025 25.2998 47.3584 24.5674C47.1143 23.8252 46.9922 22.9609 46.9922 21.9746C46.9922 19.9922 47.6953 18.5029 49.1016 17.5068C50.5176 16.5107 52.3193 16.0127 54.5068 16.0127C57.3975 16.0127 59.8096 16.5742 61.7432 17.6973L60.5127 20.7588C58.6279 19.8701 56.7529 19.4258 54.8877 19.4258C52.5439 19.4258 51.3379 20.1436 51.2695 21.5791C51.2695 21.6572 51.2695 21.7305 51.2695 21.7988C51.2695 22.5312 51.4502 23.1025 51.8115 23.5127C52.1826 23.9229 52.9346 24.2988 54.0674 24.6406L57.7441 25.7393C59.2285 26.1885 60.3271 26.8965 61.04 27.8633C61.7627 28.8301 62.124 30.207 62.124 31.9941C62.124 33.7715 61.5527 35.2803 60.4102 36.5205C59.2773 37.7607 57.4316 38.3809 54.873 38.3809ZM66.5625 38V16.3789H71.3525L77.5049 26.8525L83.5693 16.3789H88.4473V38H84.375V22.0186L78.9697 31.7158H76.0547L70.6348 22.0771V38H66.5625ZM98.9209 30.9834H105.688L102.363 19.6162L98.9209 30.9834ZM92.2559 38L99.375 16.3789H105.146L112.354 38H107.739L106.523 33.8838H98.0566L96.7969 38H92.2559ZM120.513 26.3545H125.859C126.885 26.3545 127.588 26.0664 127.969 25.4902C128.359 24.9043 128.555 24.0205 128.555 22.8389C128.555 20.5928 127.715 19.4697 126.035 19.4697H120.513V26.3545ZM116.162 38V16.3789H125.493C128.286 16.3789 130.186 16.9453 131.191 18.0781C132.207 19.2109 132.715 20.749 132.715 22.6924C132.715 24.626 132.432 26.0371 131.865 26.9258C131.309 27.8047 130.532 28.4395 129.536 28.8301L133.711 38H129.199L125.405 29.46H120.513V38H116.162ZM141.694 38V19.6895H135.674V16.3789H152.051V19.6895H146.03V38H141.694Z" fill="white"/>
<path d="M99.96 51C99.96 49.6267 100.26 48.4 100.86 47.32C101.46 46.2267 102.28 45.38 103.32 44.78C104.36 44.1667 105.52 43.86 106.8 43.86C108.36 43.86 109.693 44.2333 110.8 44.98C111.92 45.7133 112.733 46.7533 113.24 48.1H111.6C111.2 47.1533 110.587 46.4133 109.76 45.88C108.947 45.3467 107.96 45.08 106.8 45.08C105.773 45.08 104.847 45.32 104.02 45.8C103.207 46.28 102.567 46.9733 102.1 47.88C101.633 48.7733 101.4 49.8133 101.4 51C101.4 52.1867 101.633 53.2267 102.1 54.12C102.567 55.0133 103.207 55.7 104.02 56.18C104.847 56.66 105.773 56.9 106.8 56.9C107.96 56.9 108.947 56.64 109.76 56.12C110.587 55.5867 111.2 54.8533 111.6 53.92H113.24C112.733 55.2533 111.92 56.2867 110.8 57.02C109.68 57.7533 108.347 58.12 106.8 58.12C105.52 58.12 104.36 57.82 103.32 57.22C102.28 56.6067 101.46 55.76 100.86 54.68C100.26 53.6 99.96 52.3733 99.96 51ZM117.43 43.2V58H116.03V43.2H117.43ZM119.96 52.52C119.96 51.4 120.18 50.42 120.62 49.58C121.073 48.7267 121.693 48.0733 122.48 47.62C123.28 47.1533 124.18 46.92 125.18 46.92C126.22 46.92 127.113 47.16 127.86 47.64C128.62 48.12 129.167 48.7333 129.5 49.48V47.08H130.9V58H129.5V55.58C129.153 56.3267 128.6 56.9467 127.84 57.44C127.093 57.92 126.2 58.16 125.16 58.16C124.173 58.16 123.28 57.9267 122.48 57.46C121.693 56.9933 121.073 56.3333 120.62 55.48C120.18 54.6267 119.96 53.64 119.96 52.52ZM129.5 52.54C129.5 51.66 129.32 50.8867 128.96 50.22C128.6 49.5533 128.107 49.04 127.48 48.68C126.867 48.32 126.187 48.14 125.44 48.14C124.667 48.14 123.973 48.3133 123.36 48.66C122.747 49.0067 122.26 49.5133 121.9 50.18C121.553 50.8333 121.38 51.6133 121.38 52.52C121.38 53.4133 121.553 54.2 121.9 54.88C122.26 55.5467 122.747 56.06 123.36 56.42C123.973 56.7667 124.667 56.94 125.44 56.94C126.187 56.94 126.867 56.76 127.48 56.4C128.107 56.04 128.6 55.5267 128.96 54.86C129.32 54.1933 129.5 53.42 129.5 52.54ZM137.856 58.16C136.603 58.16 135.576 57.8733 134.776 57.3C133.989 56.7133 133.549 55.92 133.456 54.92H134.896C134.963 55.5333 135.249 56.0333 135.756 56.42C136.276 56.7933 136.969 56.98 137.836 56.98C138.596 56.98 139.189 56.8 139.616 56.44C140.056 56.08 140.276 55.6333 140.276 55.1C140.276 54.7267 140.156 54.42 139.916 54.18C139.676 53.94 139.369 53.7533 138.996 53.62C138.636 53.4733 138.143 53.32 137.516 53.16C136.703 52.9467 136.043 52.7333 135.536 52.52C135.029 52.3067 134.596 51.9933 134.236 51.58C133.889 51.1533 133.716 50.5867 133.716 49.88C133.716 49.3467 133.876 48.8533 134.196 48.4C134.516 47.9467 134.969 47.5867 135.556 47.32C136.143 47.0533 136.809 46.92 137.556 46.92C138.729 46.92 139.676 47.22 140.396 47.82C141.116 48.4067 141.503 49.22 141.556 50.26H140.156C140.116 49.62 139.863 49.1067 139.396 48.72C138.943 48.32 138.316 48.12 137.516 48.12C136.809 48.12 136.236 48.2867 135.796 48.62C135.356 48.9533 135.136 49.3667 135.136 49.86C135.136 50.2867 135.263 50.64 135.516 50.92C135.783 51.1867 136.109 51.4 136.496 51.56C136.883 51.7067 137.403 51.8733 138.056 52.06C138.843 52.2733 139.469 52.48 139.936 52.68C140.403 52.88 140.803 53.1733 141.136 53.56C141.469 53.9467 141.643 54.46 141.656 55.1C141.656 55.6867 141.496 56.2133 141.176 56.68C140.856 57.1333 140.409 57.4933 139.836 57.76C139.263 58.0267 138.603 58.16 137.856 58.16ZM148.051 58.16C146.798 58.16 145.771 57.8733 144.971 57.3C144.185 56.7133 143.745 55.92 143.651 54.92H145.091C145.158 55.5333 145.445 56.0333 145.951 56.42C146.471 56.7933 147.165 56.98 148.031 56.98C148.791 56.98 149.385 56.8 149.811 56.44C150.251 56.08 150.471 55.6333 150.471 55.1C150.471 54.7267 150.351 54.42 150.111 54.18C149.871 53.94 149.565 53.7533 149.191 53.62C148.831 53.4733 148.338 53.32 147.711 53.16C146.898 52.9467 146.238 52.7333 145.731 52.52C145.225 52.3067 144.791 51.9933 144.431 51.58C144.085 51.1533 143.911 50.5867 143.911 49.88C143.911 49.3467 144.071 48.8533 144.391 48.4C144.711 47.9467 145.165 47.5867 145.751 47.32C146.338 47.0533 147.005 46.92 147.751 46.92C148.925 46.92 149.871 47.22 150.591 47.82C151.311 48.4067 151.698 49.22 151.751 50.26H150.351C150.311 49.62 150.058 49.1067 149.591 48.72C149.138 48.32 148.511 48.12 147.711 48.12C147.005 48.12 146.431 48.2867 145.991 48.62C145.551 48.9533 145.331 49.3667 145.331 49.86C145.331 50.2867 145.458 50.64 145.711 50.92C145.978 51.1867 146.305 51.4 146.691 51.56C147.078 51.7067 147.598 51.8733 148.251 52.06C149.038 52.2733 149.665 52.48 150.131 52.68C150.598 52.88 150.998 53.1733 151.331 53.56C151.665 53.9467 151.838 54.46 151.851 55.1C151.851 55.6867 151.691 56.2133 151.371 56.68C151.051 57.1333 150.605 57.4933 150.031 57.76C149.458 58.0267 148.798 58.16 148.051 58.16Z" fill="white"/>
<path d="M27 37C27 40.3137 24.3137 41 21 41C17.6863 41 15 40.3137 15 37C15 33.6863 17.6863 31 21 31C24.3137 31 27 33.6863 27 37Z" fill="white"/>
<circle cx="21.5" cy="27.5" r="10.5" fill="white"/>
<path d="M21 2L21 11" stroke="white" stroke-width="3" stroke-linecap="round"/>
<path d="M3 10L8.71751 15.7175" stroke="white" stroke-width="3" stroke-linecap="round"/>
<path d="M39 10L33 15.7175" stroke="white" stroke-width="3" stroke-linecap="round"/>
</svg>
